<svg xmlns="http://www.w3.org/2000/svg" width="60" height="60" viewBox="0 0 60 60" id="like">
  <g transform="translate(371 -75)">
    <path fill="#f75478" d="m -320,99.583464 c -6.2e-4,-6.052962 -4.82278,-10.959242 -10.77073,-10.95846 -3.78502,0 -7.2889,2.033828 -9.22904,5.340763 -1.94072,-3.306935 -5.44467,-5.33479 -9.22932,-5.340763 -5.94803,-7.82e-4 -10.77029,4.905498 -10.77092,10.95846 0,10.426136 10.74879,18.775716 20.00024,23.791576 C -330.74878,118.35944 -320,110.0096 -320,99.583464 Z"></path>
    <path fill="#f64243" d="m -330.77108,88.625004 c -0.72107,0 -1.43099,0.07579 -2.12278,0.218157 4.92428,1.008202 8.63296,5.431454 8.6335,10.739792 0,9.633707 -9.17601,17.488927 -17.86889,22.584917 0.71467,0.41893 1.42649,0.82612 2.12925,1.20713 9.25099,-5.01559 19.99977,-13.36591 19.99977,-23.792047 -6.3e-4,-6.052962 -4.8229,-10.958731 -10.77085,-10.957949 z"></path>
    <path fill="#1e2950" d="m -349.22852,87.625 c -6.498,-8.54e-4 -11.77079,5.37496 -11.77148,11.958984 0,5.556716 2.85695,10.484686 6.80859,14.615236 3.95164,4.13054 9.02739,7.51329 13.71485,10.05469 a 1.0000998,1.0000998 0 0 0 0.95312,0 c 4.68724,-2.54128 9.76327,-5.92411 13.71485,-10.05469 3.95157,-4.13058 6.80859,-9.05852 6.80859,-14.615236 -6.7e-4,-6.584014 -5.27355,-11.959838 -11.77148,-11.958984 -3.66987,0 -7.02341,1.817346 -9.22852,4.722656 -2.2057,-2.904323 -5.55883,-4.716868 -9.22656,-4.722656 a 1.0000998,1.0000998 0 0 0 -0.002,0 z m -0.002,2 c 3.42842,0.0054 6.60404,1.839966 8.36914,4.847656 a 1.0000998,1.0000998 0 0 0 1.72461,0 c 1.76478,-3.008038 4.93844,-4.847656 8.36524,-4.847656 5.39796,-7.1e-4 9.77091,4.437074 9.77148,9.958984 0,4.869416 -2.51835,9.327646 -6.25391,13.232426 -3.60689,3.77027 -8.31737,6.93905 -12.74609,9.38281 -4.42895,-2.44388 -9.13915,-5.61257 -12.74609,-9.38281 C -356.48166,108.91166 -359,104.4534 -359,99.583984 c 5.7e-4,-5.521219 4.3724,-9.958601 9.76953,-9.958984 z m 22.85352,17.81836 a 0.50005,0.50005 0 0 0 -0.0508,0.002 0.50005,0.50005 0 0 0 -0.39454,0.24805 c -1.65037,2.76097 -4.18682,5.25615 -7,7.38867 a 0.50040275,0.50040275 0 1 0 0.60547,0.79688 c 2.88125,-2.18413 5.50681,-4.75237 7.25196,-7.67188 a 0.50005,0.50005 0 0 0 -0.41211,-0.76367 z m -9.375,9.11133 a 0.50005,0.50005 0 0 0 -0.26758,0.0879 c -0.50247,0.33532 -1.00753,0.66031 -1.51367,0.97265 a 0.50005,0.50005 0 1 0 0.52539,0.84961 c 0.51575,-0.31827 1.03209,-0.64799 1.54492,-0.99023 a 0.50005,0.50005 0 0 0 -0.28906,-0.91992 z" color="#000" font-family="sans-serif" font-weight="400" overflow="visible" style="line-height:normal;text-indent:0;text-align:start;text-decoration-line:none;text-decoration-style:solid;text-decoration-color:#000;text-transform:none;block-progression:tb;isolation:auto;mix-blend-mode:normal"></path>
    <path fill="#fb87a4" d="m -348.05539,92.217429 a 4.4004913,6.2212574 30.091914 0 0 -5.33123,3.618175 4.4004913,6.2212574 30.091914 0 0 0.69735,7.585406 4.4004913,6.2212574 30.091914 0 0 6.92654,-3.18833 4.4004913,6.2212574 30.091914 0 0 -0.69896,-7.585401 4.4004913,6.2212574 30.091914 0 0 -1.5937,-0.42985 z m -3.57896,13.175071 a 2.4460678,1.8430041 0 0 0 -2.44638,1.84221 2.4460678,1.8430041 0 0 0 2.44638,1.84383 2.4460678,1.8430041 0 0 0 2.44476,-1.84383 2.4460678,1.8430041 0 0 0 -2.44476,-1.84221 z"></path>
    <path fill="#47c5fe" d="m -350.78906,84.667969 c -5.25816,-6.92e-4 -9.82792,3.045379 -12.08399,7.490234 a 1.0000998,1.0000998 0 1 0 1.78321,0.904297 c 1.93085,-3.804117 5.81418,-6.395121 10.30078,-6.394531 a 1.0000998,1.0000998 0 1 0 0,-2 z m -12.45117,10.609375 a 1.0000998,1.0000998 0 0 0 -0.94141,0.845703 c -0.13083,0.770116 -0.19913,1.560515 -0.19922,2.367187 a 1.0000998,1.0000998 0 1 0 2,0.002 c 7e-5,-0.69426 0.0597,-1.375057 0.17188,-2.035157 a 1.0000998,1.0000998 0 0 0 -1.03125,-1.179687 z m 44.57031,13.802736 a 1.0000998,1.0000998 0 0 0 -0.80664,0.4668 c -1.94324,2.99705 -4.5258,5.79532 -7.43555,8.33789 a 1.0000998,1.0000998 0 1 0 1.31445,1.50585 c 3.01502,-2.63455 5.72509,-5.55557 7.79883,-8.7539 a 1.0000998,1.0000998 0 0 0 -0.87109,-1.55664 z m -10.65625,11.06836 a 1.0000998,1.0000998 0 0 0 -0.6211,0.21484 c -0.45102,0.34518 -0.90794,0.68402 -1.36718,1.01758 A 1.000509,1.000509 0 0 0 -330.13867,123 c 0.47232,-0.34306 0.94152,-0.69316 1.40625,-1.04883 a 1.0000998,1.0000998 0 0 0 -0.59375,-1.80273 z" color="#000" font-family="sans-serif" font-weight="400" overflow="visible" style="line-height:normal;text-indent:0;text-align:start;text-decoration-line:none;text-decoration-style:solid;text-decoration-color:#000;text-transform:none;block-progression:tb;isolation:auto;mix-blend-mode:normal"></path>
  </g>
</svg>
